<svg width="12" height="14" viewBox="0 0 12 14" fill="none" xmlns="http://www.w3.org/2000/svg">
<path d="M11.14 5.25001C10.67 5.25001 10.28 5.64001 10.28 6.12001V9.62001C10.28 10.1 10.67 10.5 11.14 10.5C11.61 10.5 12 10.11 12 9.62001V6.12001C12 5.64001 11.61 5.25001 11.14 5.25001ZM0.849998 5.25001C0.379998 5.25001 -0.0100021 5.64001 -0.0100021 6.12001V9.62001C-0.0100021 10.1 0.379998 10.5 0.849998 10.5C1.32 10.5 1.71 10.11 1.71 9.62001V6.12001C1.71 5.64001 1.32 5.25001 0.849998 5.25001ZM2.14 10.06C2.14 10.41 2.28 10.74 2.52 10.99C2.76 11.24 3.09 11.37 3.43 11.37V13.12C3.43 13.6 3.82 14 4.29 14C4.76 14 5.15 13.61 5.15 13.12V11.37H6.86V13.12C6.86 13.6 7.25 14 7.72 14C8.19 14 8.58 13.61 8.58 13.12V11.37C8.92 11.37 9.25 11.23 9.49 10.99C9.73 10.74 9.87 10.41 9.87 10.06V5.25001H2.14V10.06ZM9.83 4.37001C9.77 3.79001 9.58 3.23001 9.28 2.74001C8.98 2.24001 8.58 1.82001 8.1 1.51001L8.53 0.630006C8.58 0.530006 8.59 0.410006 8.55 0.300006C8.53242 0.245484 8.50381 0.195158 8.46597 0.152152C8.42812 0.109146 8.38184 0.0743776 8.33 0.0500064C8.27921 0.0245213 8.22377 0.00960861 8.16705 0.00617087C8.11033 0.00273314 8.0535 0.0108419 8 0.0300064C7.89 0.0700064 7.8 0.150006 7.75 0.250006L7.32 1.13001L7.21 1.08001C6.42 0.810006 5.57 0.810006 4.78 1.08001L4.67 1.13001L4.24 0.250006C4.1877 0.147528 4.09829 0.06885 3.99 0.0300064C3.9365 0.0108419 3.87967 0.00273314 3.82295 0.00617087C3.76622 0.00960861 3.71079 0.0245213 3.66 0.0500064C3.56 0.100006 3.48 0.190006 3.44 0.300006C3.42083 0.353504 3.41272 0.410334 3.41616 0.467057C3.4196 0.52378 3.43451 0.579215 3.46 0.630006L3.89 1.51001C3.41 1.83001 3.01 2.25001 2.71 2.74001C2.41 3.24001 2.22 3.79001 2.16 4.37001V4.81001H9.85V4.37001H9.83ZM4.71 3.50001C4.6 3.50001 4.49 3.45001 4.41 3.37001C4.36903 3.32941 4.33646 3.28113 4.31415 3.22794C4.29184 3.17475 4.28024 3.11769 4.28 3.06001C4.28 2.94001 4.32 2.83001 4.41 2.75001C4.49 2.67001 4.6 2.62001 4.71 2.62001C4.82 2.62001 4.93 2.67001 5.01 2.75001C5.09 2.83001 5.14 2.94001 5.14 3.06001C5.14 3.18001 5.09 3.29001 5.01 3.37001C4.93 3.45001 4.82 3.50001 4.71 3.50001ZM7.28 3.50001C7.17 3.50001 7.06 3.45001 6.98 3.37001C6.93903 3.32941 6.90646 3.28113 6.88415 3.22794C6.86184 3.17475 6.85024 3.11769 6.85 3.06001C6.85 2.94001 6.89 2.83001 6.98 2.75001C7.06 2.67001 7.17 2.62001 7.28 2.62001C7.39 2.62001 7.5 2.67001 7.58 2.75001C7.66 2.83001 7.71 2.94001 7.71 3.06001C7.71 3.18001 7.66 3.29001 7.58 3.37001C7.5 3.45001 7.39 3.50001 7.28 3.50001Z" fill="white"/>
</svg>
