<?xml version="1.0" encoding="UTF-8"?>
<svg version="1.1" xmlns="http://www.w3.org/2000/svg" width="150" height="150">
<path d="M0 0 C49.5 0 99 0 150 0 C150 49.5 150 99 150 150 C100.5 150 51 150 0 150 C0 100.5 0 51 0 0 Z " fill="#060606" transform="translate(0,0)"/>
<path d="M0 0 C49.5 0 99 0 150 0 C150 49.5 150 99 150 150 C100.5 150 51 150 0 150 C0 100.5 0 51 0 0 Z M16 14 C13.8856885 17.17146725 13.74940001 17.92898319 13.74603271 21.55456543 C13.74039307 22.48832504 13.73475342 23.42208466 13.72894287 24.38414001 C13.73299133 25.40657303 13.73703979 26.42900604 13.74121094 27.48242188 C13.7377063 28.56068741 13.73420166 29.63895294 13.73059082 30.74989319 C13.72177055 34.32291047 13.7276238 37.89573061 13.734375 41.46875 C13.73302844 43.94592324 13.73108798 46.42309622 13.72857666 48.90026855 C13.72524659 54.76150636 13.73225794 60.62267232 13.7428782 66.48389959 C13.75038761 71.16068221 13.74773191 75.83738067 13.73925781 80.51416016 C13.72768464 86.95612535 13.72583769 93.39800905 13.73236847 99.83998108 C13.73370529 102.2992403 13.73205611 104.75850298 13.72740936 107.21775818 C13.72234617 110.65112567 13.73005168 114.08423027 13.74121094 117.51757812 C13.73716248 118.54001114 13.73311401 119.56244415 13.72894287 120.61585999 C13.73458252 121.5496196 13.74022217 122.48337921 13.74603271 123.44543457 C13.74678677 124.25732491 13.74754082 125.06921524 13.74831772 125.90570831 C13.87669007 128.30411667 13.87669007 128.30411667 16 131 C16.99 131.33 17.98 131.66 19 132 C19.66 132.99 20.32 133.98 21 135 C23.07676715 135.45169558 23.07676715 135.45169558 25.51696777 135.3742218 C26.46762619 135.38123611 27.41828461 135.38825043 28.39775085 135.39547729 C29.44405167 135.38783356 30.49035248 135.38018982 31.56835938 135.37231445 C33.21720879 135.37779045 33.21720879 135.37779045 34.89936829 135.38337708 C38.54765071 135.39150996 42.19549279 135.3778494 45.84375 135.36328125 C48.36958821 135.36276297 50.89542683 135.36327941 53.42126465 135.36479187 C58.7208506 135.36470202 64.02028076 135.35458368 69.31982422 135.33618164 C75.45127274 135.31501313 81.58253401 135.31150379 87.71401167 135.3177436 C93.60654709 135.32343377 99.49902595 135.31769178 105.39155579 135.30657005 C107.90187819 135.30271004 110.41220625 135.30157313 112.92253113 135.3031559 C116.42567826 135.30352513 119.92853669 135.29094604 123.43164062 135.2746582 C124.47794144 135.27713562 125.52424225 135.27961304 126.60224915 135.28216553 C128.02823677 135.27153831 128.02823677 135.27153831 129.48303223 135.26069641 C130.31189186 135.25864354 131.1407515 135.25659067 131.99472809 135.25447559 C134.22943502 135.17887207 134.22943502 135.17887207 136 133 C136.30350748 130.91620464 136.30350748 130.91620464 136.25396729 128.48303223 C136.25960693 127.53237381 136.26524658 126.58171539 136.27105713 125.60224915 C136.26700867 124.55594833 136.26296021 123.50964752 136.25878906 122.43164062 C136.2622937 121.33240768 136.26579834 120.23317474 136.26940918 119.10063171 C136.27824076 115.452441 136.27237224 111.80444283 136.265625 108.15625 C136.26697124 105.6304114 136.26891142 103.10457306 136.27142334 100.57873535 C136.27437654 95.27918803 136.27026026 89.97971027 136.26074219 84.68017578 C136.24985733 78.54873456 136.25338281 72.41742633 136.264395 66.28598833 C136.27455548 60.39346232 136.27349159 54.50097774 136.26763153 48.60844421 C136.26629356 46.09811891 136.26794786 43.58779024 136.27259064 41.07746887 C136.2776471 37.57433977 136.26995788 34.07146914 136.25878906 30.56835938 C136.26283752 29.52205856 136.26688599 28.47575775 136.27105713 27.39775085 C136.26541748 26.44709244 136.25977783 25.49643402 136.25396729 24.51696777 C136.25321323 23.68810814 136.25245918 22.8592485 136.25168228 22.00527191 C136.17947213 19.77044283 136.17947213 19.77044283 134 18 C133.01 18 132.02 18 131 18 C130.01 16.02 130.01 16.02 129 14 C114.3012079 13.92998147 99.60243782 13.87704703 84.90351295 13.84456348 C78.07884783 13.82908126 71.2542862 13.80796607 64.4296875 13.77368164 C57.84856771 13.74063606 51.2675275 13.72316679 44.68632126 13.71536827 C42.17039671 13.70980786 39.65447832 13.69895041 37.1385994 13.68280983 C33.62563396 13.66116061 30.11311862 13.65802786 26.60009766 13.65942383 C25.0259333 13.64324509 25.0259333 13.64324509 23.41996765 13.6267395 C22.46641891 13.63086349 21.51287018 13.63498749 20.53042603 13.63923645 C19.69896875 13.63647107 18.86751148 13.63370569 18.01085854 13.63085651 C17.34727522 13.75267386 16.6836919 13.87449121 16 14 Z " fill="#000000" transform="translate(0,0)"/>
<path d="M0 0 C2.01085854 -0.36914349 2.01085854 -0.36914349 4.53042603 -0.36076355 C5.48397476 -0.36488754 6.4375235 -0.36901154 7.41996765 -0.3732605 C8.994132 -0.35708176 8.994132 -0.35708176 10.60009766 -0.34057617 C12.25376595 -0.34123329 12.25376595 -0.34123329 13.94084167 -0.34190369 C17.59875974 -0.33980727 21.25622413 -0.31643555 24.9140625 -0.29296875 C27.44468943 -0.28737584 29.9753196 -0.28310431 32.50595093 -0.28010559 C38.49481588 -0.26980657 44.48348495 -0.24614272 50.47227132 -0.21605712 C57.28957719 -0.18255111 64.10689079 -0.1660367 70.92425847 -0.15097082 C84.94959645 -0.11959406 98.97478927 -0.06680989 113 0 C113.28746094 0.64582031 113.57492188 1.29164062 113.87109375 1.95703125 C114.80619074 4.19412624 114.80619074 4.19412624 117.0625 4.6875 C117.701875 4.790625 118.34125 4.89375 119 5 C120.58478133 6.58478133 120.12927168 8.19773978 120.13371277 10.39671326 C120.14011024 11.82063889 120.14011024 11.82063889 120.14663696 13.27333069 C120.14595718 14.84817482 120.14595718 14.84817482 120.14526367 16.45483398 C120.14862228 17.5539209 120.1519809 18.65300781 120.15544128 19.78540039 C120.16498401 23.43897616 120.16689604 27.09250627 120.16796875 30.74609375 C120.17117895 33.2733614 120.17454283 35.80062887 120.17805481 38.32789612 C120.18405435 43.63339748 120.18593652 48.93888167 120.18530273 54.24438477 C120.18470179 60.38318089 120.1952552 66.52188918 120.2110464 72.66066307 C120.22567799 78.55798367 120.22929135 84.45527732 120.22869301 90.35261726 C120.22987721 92.86573711 120.23432343 95.37885754 120.24202538 97.89196587 C120.2517696 101.39997623 120.24896933 104.90775782 120.24291992 108.41577148 C120.24853943 109.46364334 120.25415894 110.5115152 120.25994873 111.59114075 C120.25575424 112.54324432 120.25155975 113.4953479 120.24723816 114.4763031 C120.24778293 115.30646155 120.24832769 116.13662001 120.24888897 116.99193478 C120 119 120 119 118 121 C115.99472809 121.25447559 115.99472809 121.25447559 113.48303223 121.26069641 C112.0570446 121.27132362 112.0570446 121.27132362 110.60224915 121.28216553 C109.55594833 121.27968811 108.50964752 121.27721069 107.43164062 121.2746582 C106.33240768 121.27976913 105.23317474 121.28488007 104.10063171 121.29014587 C100.45244972 121.30409212 96.80445555 121.30308145 93.15625 121.30078125 C90.63041106 121.30466512 88.10457278 121.30899914 85.57873535 121.31376648 C80.27919124 121.32123933 74.97971664 121.32106701 69.68017578 121.31567383 C63.54869051 121.30963012 57.41743448 121.32195317 51.28598833 121.3432439 C45.39346151 121.36295493 39.50100602 121.36603721 33.60844421 121.36250877 C31.09811362 121.36302387 28.58777951 121.36829657 26.07746887 121.37832069 C22.57425019 121.39059292 19.0715688 121.38394897 15.56835938 121.37231445 C14.52205856 121.37995819 13.47575775 121.38760193 12.39775085 121.39547729 C10.97176323 121.38495583 10.97176323 121.38495583 9.51696777 121.3742218 C8.27367832 121.37447341 8.27367832 121.37447341 7.00527191 121.37473011 C6.01266232 121.18923871 6.01266232 121.18923871 5 121 C4.34 120.01 3.68 119.02 3 118 C1.67479497 117.31731862 0.34187818 116.6492959 -1 116 C-2.18370351 113.63259298 -2.12826792 112.20653152 -2.13371277 109.56568909 C-2.13797775 108.63330414 -2.14224274 107.70091919 -2.14663696 106.74028015 C-2.14618378 105.71425186 -2.14573059 104.68822357 -2.14526367 103.63110352 C-2.14862228 102.55298401 -2.1519809 101.4748645 -2.15544128 100.36407471 C-2.16497204 96.78567363 -2.16689542 93.20731924 -2.16796875 89.62890625 C-2.17117971 87.15030396 -2.17454366 84.67170186 -2.17805481 82.19309998 C-2.1840513 76.99192871 -2.18589416 71.79077408 -2.18530273 66.58959961 C-2.18476824 61.23996003 -2.19181736 55.89039254 -2.20581055 50.54077148 C-2.22243725 44.09348546 -2.22935983 37.64626436 -2.22869301 31.19895744 C-2.2298762 28.7369036 -2.23431686 26.27484915 -2.24202538 23.81280708 C-2.25178257 20.37455858 -2.24896415 16.93654298 -2.24291992 13.49829102 C-2.24853943 12.47428696 -2.25415894 11.4502829 -2.25994873 10.39524841 C-2.25575424 9.46004364 -2.25155975 8.52483887 -2.24723816 7.56129456 C-2.24805531 6.34151083 -2.24805531 6.34151083 -2.24888897 5.097085 C-2 3 -2 3 0 0 Z M13 15 C12.89946492 17.8250333 12.86384284 20.62565285 12.87060547 23.45117188 C12.86885315 24.33728653 12.86710083 25.22340118 12.86529541 26.1363678 C12.8608756 29.08051482 12.86381533 32.02460231 12.8671875 34.96875 C12.8665145 37.00516776 12.8655445 39.04158544 12.86428833 41.07800293 C12.86281118 45.35197716 12.86496645 49.62593053 12.86962891 53.89990234 C12.8753262 59.39158539 12.87204729 64.88321957 12.86605644 70.37490082 C12.86245128 74.58177054 12.86358921 78.78862859 12.86618423 82.99549866 C12.86685363 85.02100124 12.86602465 87.04650486 12.86370468 89.07200623 C12.8611789 91.8976423 12.8650177 94.72319807 12.87060547 97.54882812 C12.86858124 98.39457901 12.86655701 99.2403299 12.86447144 100.11170959 C12.51557623 103.86059746 12.51557623 103.86059746 14 107 C16.83040672 107.09520906 19.63634993 107.12553631 22.46704102 107.11352539 C23.35476196 107.11367142 24.24248291 107.11381744 25.15710449 107.1139679 C28.10606284 107.11326843 31.05495887 107.10547448 34.00390625 107.09765625 C36.04271917 107.09579219 38.08153254 107.09436823 40.12034607 107.09336853 C45.49784574 107.08954241 50.87531858 107.07971132 56.25280762 107.06866455 C61.73559201 107.05845245 67.21838072 107.05387134 72.70117188 107.04882812 C83.46745973 107.03808914 94.23372764 107.02101159 105 107 C105.0231219 95.02196441 105.0409143 83.04393409 105.05181217 71.06588078 C105.05704134 65.50460589 105.06413958 59.94334621 105.07543945 54.38208008 C105.08626715 49.01992581 105.09227658 43.65778622 105.09487724 38.29562187 C105.09673171 36.24499722 105.10035272 34.1943734 105.10573006 32.14375496 C105.11293893 29.28209797 105.11399101 26.42050243 105.11352539 23.55883789 C105.1189183 22.27382889 105.1189183 22.27382889 105.12442017 20.96286011 C105.48793166 17.17490136 105.48793166 17.17490136 104 14 C101.20547729 13.89948125 98.43563645 13.86384106 95.640625 13.87060547 C94.76426392 13.86885315 93.88790283 13.86710083 92.98498535 13.86529541 C90.07330373 13.86087568 87.1616823 13.86381531 84.25 13.8671875 C82.23600248 13.8665145 80.22200505 13.8655445 78.20800781 13.86428833 C73.98111195 13.86281119 69.75423717 13.86496642 65.52734375 13.86962891 C60.09619468 13.8753262 54.66509501 13.87204728 49.23394775 13.86605644 C45.07340113 13.86245126 40.91286631 13.86358922 36.75231934 13.86618423 C34.74914545 13.86685362 32.74597051 13.86602467 30.74279785 13.86370468 C27.94829448 13.86117885 25.15387229 13.86501776 22.359375 13.87060547 C21.52297485 13.86858124 20.68657471 13.86655701 19.8248291 13.86447144 C16.10942564 13.52118329 16.10942564 13.52118329 13 15 Z " fill="#FCFCFC" transform="translate(16,14)"/>
<path d="M0 0 C8.68764805 3.97037309 15.86914174 11.52918569 23.00146484 17.78662109 C26.5120253 20.83783706 30.07472679 23.50209886 34 26 C34.11214844 25.14148438 34.22429687 24.28296875 34.33984375 23.3984375 C35.02648164 19.8636744 36.13294687 16.92396876 37.5625 13.625 C38.01753906 12.56539062 38.47257812 11.50578125 38.94140625 10.4140625 C39.46541016 9.21910156 39.46541016 9.21910156 40 8 C43.3 8 46.6 8 50 8 C51.50514646 12.12314058 53.00324372 16.24880702 54.5 20.375 C54.92925781 21.550625 55.35851562 22.72625 55.80078125 23.9375 C56.20683594 25.05898437 56.61289063 26.18046875 57.03125 27.3359375 C57.40830078 28.37282715 57.78535156 29.4097168 58.17382812 30.47802734 C59 33 59 33 59 35 C56.36 35 53.72 35 51 35 C50.505 33.02 50.505 33.02 50 31 C46.37 31 42.74 31 39 31 C39 32.32 39 33.64 39 35 C38.42894531 34.87238281 37.85789063 34.74476562 37.26953125 34.61328125 C32.47061364 34.02581439 29.8255872 34.43899857 25.7578125 37.203125 C22.92286689 39.56251517 20.22046716 42.06464371 17.53222656 44.58886719 C15.38030669 46.57071819 13.11697687 48.38689588 10.8125 50.1875 C9.77029297 51.01314453 9.77029297 51.01314453 8.70703125 51.85546875 C7 53 7 53 5 53 C5 51.02 5 49.04 5 47 C3.35 47.66 1.7 48.32 0 49 C-0.64536874 45.1636414 -0.81343271 41.82066877 0 38 C2.89101393 34.39311595 6.361552 31.81514954 10 29 C11.68864687 27.35560732 13.36161375 25.69447515 15 24 C14.08476563 23.22914062 13.16953125 22.45828125 12.2265625 21.6640625 C11.02600156 20.6510892 9.82548292 19.63806576 8.625 18.625 C8.02171875 18.11710937 7.4184375 17.60921875 6.796875 17.0859375 C6.21679688 16.59609375 5.63671875 16.10625 5.0390625 15.6015625 C4.50490723 15.15119629 3.97075195 14.70083008 3.42041016 14.23681641 C0.02076495 11.27658907 0.02076495 11.27658907 -0.1953125 8.3984375 C-0.17210937 7.40070312 -0.14890625 6.40296875 -0.125 5.375 C-0.10695312 4.37210938 -0.08890625 3.36921875 -0.0703125 2.3359375 C-0.04710937 1.56507812 -0.02390625 0.79421875 0 0 Z " fill="#FAF5F9" transform="translate(43,48)"/>
<path d="M0 0 C3.875 0.875 3.875 0.875 5 2 C5.09997278 3.4628365 5.13075151 4.93046757 5.13371277 6.39671326 C5.14011024 7.82063889 5.14011024 7.82063889 5.14663696 9.27333069 C5.14595718 10.84817482 5.14595718 10.84817482 5.14526367 12.45483398 C5.14862228 13.5539209 5.1519809 14.65300781 5.15544128 15.78540039 C5.16498401 19.43897616 5.16689604 23.09250627 5.16796875 26.74609375 C5.17117895 29.2733614 5.17454283 31.80062887 5.17805481 34.32789612 C5.18405435 39.63339748 5.18593652 44.93888167 5.18530273 50.24438477 C5.18470179 56.38318089 5.1952552 62.52188918 5.2110464 68.66066307 C5.22567799 74.55798367 5.22929135 80.45527732 5.22869301 86.35261726 C5.22987721 88.86573711 5.23432343 91.37885754 5.24202538 93.89196587 C5.2517696 97.39997623 5.24896933 100.90775782 5.24291992 104.41577148 C5.24853943 105.46364334 5.25415894 106.5115152 5.25994873 107.59114075 C5.25575424 108.54324432 5.25155975 109.4953479 5.24723816 110.4763031 C5.24778293 111.30646155 5.24832769 112.13662001 5.24888897 112.99193478 C5 115 5 115 3 117 C0.98914146 117.24609566 0.98914146 117.24609566 -1.53042603 117.24050903 C-2.48397476 117.24325836 -3.4375235 117.24600769 -4.41996765 117.24884033 C-5.46941055 117.24164978 -6.51885345 117.23445923 -7.60009766 117.22705078 C-8.70254318 117.22734283 -9.80498871 117.22763489 -10.94084167 117.22793579 C-14.59866097 117.22653822 -18.25627862 117.2109568 -21.9140625 117.1953125 C-24.44469084 117.19158389 -26.97532063 117.1887362 -29.50595093 117.18673706 C-35.49476506 117.17987111 -41.48349212 117.16409512 -47.47227132 117.14403808 C-54.28959007 117.12170069 -61.10691225 117.1106911 -67.92425847 117.10064721 C-81.949546 117.07972945 -95.97476902 117.04453999 -110 117 C-110.66 115.68 -111.32 114.36 -112 113 C-111.15101686 112.99365209 -111.15101686 112.99365209 -110.28488255 112.98717594 C-96.53159209 112.88400193 -82.77835473 112.77532115 -69.02515507 112.66066074 C-62.3742887 112.60538033 -55.72342296 112.55195232 -49.07250977 112.50268555 C-42.6599321 112.45511729 -36.24740985 112.4027775 -29.83489799 112.34705925 C-27.38237314 112.32660142 -24.92983306 112.30789416 -22.47728157 112.29092598 C-19.05519199 112.2669576 -15.6332083 112.23689306 -12.21118164 112.20532227 C-11.18619568 112.1995668 -10.16120972 112.19381134 -9.10516357 112.18788147 C-8.17823196 112.17809265 -7.25130035 112.16830383 -6.29627991 112.15821838 C-5.48602387 112.15176583 -4.67576784 112.14531328 -3.8409586 112.1386652 C-1.98253716 112.19987015 -1.98253716 112.19987015 -1 111 C-0.89232174 109.55830537 -0.85319047 108.11142142 -0.84178162 106.66575623 C-0.8319928 105.73041046 -0.82220398 104.7950647 -0.81211853 103.83137512 C-0.80636307 102.79703842 -0.8006076 101.76270172 -0.79467773 100.69702148 C-0.78477814 99.61422913 -0.77487854 98.53143677 -0.76467896 97.41583252 C-0.73295588 93.81760891 -0.70826397 90.21937207 -0.68359375 86.62109375 C-0.66303355 84.13387193 -0.64203734 81.64665368 -0.62062073 79.15943909 C-0.57096517 73.26982112 -0.52572497 67.38018203 -0.48259836 61.49051291 C-0.42843101 54.12970579 -0.36745396 46.76895781 -0.30664062 39.40820312 C-0.19894122 26.27217561 -0.09733335 13.1361082 0 0 Z " fill="#9B9B9B" transform="translate(131,18)"/>
<path d="M0 0 C31.35 0 62.7 0 95 0 C95 0.99 95 1.98 95 3 C50.45 3.495 50.45 3.495 5 4 C4.67 34.03 4.34 64.06 4 95 C2.68 95 1.36 95 0 95 C0 63.65 0 32.3 0 0 Z " fill="#989898" transform="translate(25,25)"/>
<path d="M0 0 C8.81192257 4.02716823 16.09378746 11.73217193 23.35302734 18.05029297 C26.47311621 20.8164404 26.47311621 20.8164404 30 23 C29.66645976 25.91684213 29.06638622 26.93598027 26.91796875 29.0078125 C26.01691406 29.70648438 25.11585937 30.40515625 24.1875 31.125 C22.70636719 32.29289062 22.70636719 32.29289062 21.1953125 33.484375 C20.41269043 34.09635742 20.41269043 34.09635742 19.61425781 34.72070312 C16.88464876 36.88391417 14.22717258 39.13267947 11.5625 41.375 C2.47301587 49 2.47301587 49 0 49 C-0.64536874 45.1636414 -0.81343271 41.82066877 0 38 C2.89101393 34.39311595 6.361552 31.81514954 10 29 C11.68864687 27.35560732 13.36161375 25.69447515 15 24 C14.08476563 23.22914062 13.16953125 22.45828125 12.2265625 21.6640625 C11.02600156 20.6510892 9.82548292 19.63806576 8.625 18.625 C8.02171875 18.11710937 7.4184375 17.60921875 6.796875 17.0859375 C6.21679688 16.59609375 5.63671875 16.10625 5.0390625 15.6015625 C4.50490723 15.15119629 3.97075195 14.70083008 3.42041016 14.23681641 C0.02076495 11.27658907 0.02076495 11.27658907 -0.1953125 8.3984375 C-0.17210937 7.40070312 -0.14890625 6.40296875 -0.125 5.375 C-0.10695312 4.37210938 -0.08890625 3.36921875 -0.0703125 2.3359375 C-0.04710937 1.56507812 -0.02390625 0.79421875 0 0 Z " fill="#FAFAFA" transform="translate(43,48)"/>
<path d="M0 0 C9.57 0 19.14 0 29 0 C29.33 1.32 29.66 2.64 30 4 C31.32 4 32.64 4 34 4 C34 6.97 34 9.94 34 13 C24.43 13 14.86 13 5 13 C5 12.01 5 11.02 5 10 C3.35 9.67 1.7 9.34 0 9 C0 6.03 0 3.06 0 0 Z " fill="#FDFDFD" transform="translate(73,88)"/>
<path d="M0 0 C1.32 0.99 2.64 1.98 4 3 C3.62846444 4.29886417 3.22664606 5.58908793 2.8125 6.875 C2.59207031 7.59429687 2.37164062 8.31359375 2.14453125 9.0546875 C0.57288622 11.72594765 -1.13593097 11.9053989 -4 13 C-5.82688939 14.51831166 -7.59470816 16.10927262 -9.3125 17.75 C-21.37771739 29 -21.37771739 29 -25 29 C-25.33 26.69 -25.66 24.38 -26 22 C-25.51273438 21.63390625 -25.02546875 21.2678125 -24.5234375 20.890625 C-19.4228026 16.99559471 -14.4967348 12.92505017 -9.625 8.75 C-9.01833496 8.23083008 -8.41166992 7.71166016 -7.78662109 7.17675781 C-5.09754013 4.8610977 -2.48884634 2.53244521 0 0 Z " fill="#979797" transform="translate(73,72)"/>
<path d="M0 0 C0.33 0.99 0.66 1.98 1 3 C2.32 3 3.64 3 5 3 C5 5.97 5 8.94 5 12 C-4.57 12 -14.14 12 -24 12 C-24 11.01 -24 10.02 -24 9 C-25.32 8.67 -26.64 8.34 -28 8 C-18.76 8 -9.52 8 0 8 C0 5.36 0 2.72 0 0 Z " fill="#9E9E9E" transform="translate(102,89)"/>
<path d="M0 0 C1.85253906 0.15649414 1.85253906 0.15649414 4 1 C5.28027344 3.37670898 5.28027344 3.37670898 6.359375 6.49609375 C6.75253906 7.61177734 7.14570312 8.72746094 7.55078125 9.87695312 C7.94652344 11.05193359 8.34226562 12.22691406 8.75 13.4375 C9.16121094 14.60861328 9.57242188 15.77972656 9.99609375 16.98632812 C13 25.63378582 13 25.63378582 13 28 C10.36 28 7.72 28 5 28 C4.67 26.68 4.34 25.36 4 24 C5.32 24 6.64 24 8 24 C7.63648437 23.06933716 7.63648437 23.06933716 7.265625 22.11987305 C6.17187037 19.31107961 5.08585681 16.49935556 4 13.6875 C3.6184375 12.71103516 3.236875 11.73457031 2.84375 10.72851562 C2.4828125 9.79072266 2.121875 8.85292969 1.75 7.88671875 C1.41484375 7.02264404 1.0796875 6.15856934 0.734375 5.26831055 C0 3 0 3 0 0 Z " fill="#B6039A" transform="translate(94,59)"/>
<path d="M0 0 C3.63 0 7.26 0 11 0 C11.33 0.99 11.66 1.98 12 3 C10.02 3.33 8.04 3.66 6 4 C5.67 5.32 5.34 6.64 5 8 C2.03 8 -0.94 8 -4 8 C-3.34 6.68 -2.68 5.36 -2 4 C-1.34 4 -0.68 4 0 4 C0 2.68 0 1.36 0 0 Z " fill="#BF04A1" transform="translate(82,79)"/>
<path d="M0 0 C3.3 0.33 6.6 0.66 10 1 C10.33 2.32 10.66 3.64 11 5 C11.99 5.33 12.98 5.66 14 6 C8.72 6 3.44 6 -2 6 C-1.34 4.02 -0.68 2.04 0 0 Z " fill="#0C000A" transform="translate(88,82)"/>
<path d="M0 0 C2.76223278 2.76223278 2.57856291 5.20706617 3 9 C1.35 9 -0.3 9 -2 9 C-1.34 6.03 -0.68 3.06 0 0 Z " fill="#CB28B1" transform="translate(87,64)"/>
</svg>
