<svg width="24" height="32" viewBox="0 0 24 32" fill="none" xmlns="http://www.w3.org/2000/svg">
<path d="M7.803 24.745C7.803 24.745 6.579 25.458 8.672 25.697C11.208 25.989 12.505 25.948 15.297 25.416C15.297 25.416 16.03 25.88 17.057 26.281C10.792 28.964 2.88 26.12 7.802 24.745H7.803ZM7.036 21.245C7.036 21.245 5.661 22.26 7.755 22.473C10.47 22.754 12.604 22.781 16.307 22.068C16.307 22.068 16.818 22.584 17.626 22.869C10.053 25.082 1.614 23.041 7.036 21.245ZM13.489 15.303C15.03 17.079 13.082 18.678 13.082 18.678C13.082 18.678 16.999 16.651 15.202 14.121C13.521 11.756 12.229 10.585 19.207 6.537C19.207 6.537 8.254 9.272 13.488 15.304L13.489 15.303ZM21.771 27.339C21.771 27.339 22.678 28.083 20.776 28.662C17.161 29.755 5.729 30.083 2.552 28.703C1.412 28.208 3.552 27.516 4.224 27.375C4.927 27.219 5.328 27.251 5.328 27.251C4.057 26.355 -2.88 29.006 1.803 29.766C14.579 31.839 25.088 28.834 21.771 27.339ZM8.391 17.615C8.391 17.615 2.574 18.995 6.328 19.495C7.917 19.708 11.079 19.662 14.027 19.412C16.432 19.208 18.85 18.776 18.85 18.776C18.85 18.776 18.001 19.14 17.386 19.563C11.479 21.115 0.0689971 20.391 3.355 18.803C6.131 17.464 8.391 17.615 8.391 17.615ZM18.823 23.448C24.823 20.323 22.047 17.328 20.115 17.735C19.64 17.828 19.427 17.918 19.427 17.918C19.427 17.918 19.599 17.641 19.938 17.522C23.771 16.173 26.719 21.495 18.703 23.605C18.703 23.6 18.798 23.521 18.823 23.448ZM15.203 0C15.203 0 18.527 3.323 12.047 8.437C6.855 12.541 10.864 14.88 12.047 17.552C9.016 14.817 6.792 12.412 8.282 10.172C10.474 6.875 16.542 5.281 15.203 0ZM8.979 31.901C14.74 32.265 23.588 31.693 23.803 28.969C23.803 28.969 23.396 30 19.036 30.822C14.12 31.749 8.052 31.639 4.453 31.046C4.453 31.046 5.193 31.655 8.978 31.901H8.979Z" fill="white"/>
</svg>
