<svg width="19" height="18" viewBox="0 0 19 18" fill="none" xmlns="http://www.w3.org/2000/svg">
<path d="M16.2023 0C16.7327 0 17.2414 0.210714 17.6165 0.585786C17.9916 0.960859 18.2023 1.46957 18.2023 2V16C18.2023 16.5304 17.9916 17.0391 17.6165 17.4142C17.2414 17.7893 16.7327 18 16.2023 18H2.2023C1.67187 18 1.16316 17.7893 0.788087 17.4142C0.413015 17.0391 0.202301 16.5304 0.202301 16V2C0.202301 1.46957 0.413015 0.960859 0.788087 0.585786C1.16316 0.210714 1.67187 0 2.2023 0H16.2023ZM15.7023 15.5V10.2C15.7023 9.33539 15.3588 8.5062 14.7475 7.89483C14.1361 7.28346 13.3069 6.94 12.4423 6.94C11.5923 6.94 10.6023 7.46 10.1223 8.24V7.13H7.3323V15.5H10.1223V10.57C10.1223 9.8 10.7423 9.17 11.5123 9.17C11.8836 9.17 12.2397 9.3175 12.5023 9.58005C12.7648 9.8426 12.9123 10.1987 12.9123 10.57V15.5H15.7023ZM4.0823 5.56C4.52786 5.56 4.95518 5.383 5.27024 5.06794C5.5853 4.75288 5.7623 4.32556 5.7623 3.88C5.7623 2.95 5.0123 2.19 4.0823 2.19C3.63409 2.19 3.20423 2.36805 2.88729 2.68499C2.57035 3.00193 2.3923 3.43178 2.3923 3.88C2.3923 4.81 3.1523 5.56 4.0823 5.56ZM5.4723 15.5V7.13H2.7023V15.5H5.4723Z" fill="white"/>
</svg>
