<svg width="25" height="24" viewBox="0 0 25 24" fill="none" xmlns="http://www.w3.org/2000/svg">
<path d="M14.406 0.0469971C14.233 0.0469971 14.072 0.0839971 13.923 0.133997C14.239 0.343997 14.413 0.623997 14.499 0.939997C14.506 0.982997 14.518 1.014 14.524 1.057C14.5314 1.09391 14.5358 1.13137 14.537 1.169C14.561 1.714 14.394 1.783 14.277 2.105C14.097 2.52 14.147 2.966 14.363 3.325C14.3828 3.37314 14.4076 3.41906 14.437 3.462C14.202 1.894 15.51 1.659 15.751 1.169C15.77 0.740997 15.417 0.455997 15.138 0.257997C14.9187 0.120226 14.6649 0.0474128 14.406 0.0479971V0.0469971ZM16.377 0.399997C16.353 0.542997 16.371 0.505997 16.365 0.579997C16.359 0.629997 16.359 0.691997 16.353 0.740997C16.34 0.790997 16.328 0.840997 16.309 0.889997C16.297 0.939997 16.279 0.989997 16.259 1.039L16.192 1.181C16.172 1.206 16.161 1.231 16.142 1.256L16.105 1.311C16.0755 1.35343 16.0445 1.39479 16.012 1.435C15.975 1.473 15.944 1.516 15.9 1.547V1.553C15.863 1.584 15.826 1.621 15.782 1.653C15.652 1.752 15.504 1.826 15.367 1.919C15.324 1.949 15.28 1.975 15.243 2.012C15.2009 2.04159 15.1615 2.07471 15.125 2.111C15.082 2.148 15.051 2.185 15.014 2.229C14.983 2.266 14.946 2.309 14.921 2.353C14.8899 2.39487 14.8608 2.43826 14.834 2.483C14.809 2.533 14.791 2.576 14.766 2.625C14.747 2.675 14.729 2.718 14.716 2.768C14.6996 2.81907 14.6853 2.87078 14.673 2.923C14.667 2.948 14.667 2.979 14.661 3.003C14.654 3.028 14.654 3.053 14.648 3.078C14.648 3.128 14.642 3.183 14.642 3.233C14.642 3.27 14.642 3.307 14.648 3.344C14.648 3.394 14.654 3.444 14.667 3.499C14.673 3.549 14.685 3.599 14.697 3.649C14.717 3.698 14.729 3.747 14.747 3.797C14.76 3.827 14.778 3.859 14.791 3.884L13.365 3.332C13.124 3.264 12.888 3.202 12.646 3.146L12.256 3.053C11.884 2.979 11.506 2.923 11.128 2.886C11.115 2.886 11.109 2.88 11.097 2.88C10.4583 2.81601 9.81518 2.80765 9.175 2.855C8.797 2.88 8.419 2.929 8.041 2.991C7.76009 3.0394 7.48093 3.09743 7.204 3.165L6.925 3.239C6.833 3.276 6.745 3.319 6.659 3.357L6.454 3.45C6.442 3.456 6.43 3.456 6.424 3.462C6.361 3.493 6.306 3.518 6.25 3.549C6.16948 3.58451 6.09073 3.62389 6.014 3.667C5.971 3.685 5.928 3.71 5.89 3.729C5.87224 3.74002 5.85388 3.75003 5.835 3.759C5.779 3.791 5.723 3.822 5.673 3.853C5.62197 3.88121 5.57256 3.91226 5.525 3.946C5.481 3.976 5.438 4.001 5.401 4.032C5.395 4.039 5.388 4.039 5.382 4.045C5.345 4.07 5.302 4.101 5.264 4.132L5.252 4.144L5.159 4.218C5.147 4.225 5.134 4.237 5.122 4.243C5.091 4.268 5.06 4.299 5.029 4.323C5.023 4.336 5.01 4.343 5.004 4.348C4.967 4.386 4.93 4.417 4.893 4.454C4.886 4.454 4.886 4.46 4.88 4.466C4.84146 4.49968 4.80443 4.53505 4.769 4.572C4.762 4.578 4.762 4.584 4.756 4.584C4.72345 4.61586 4.69242 4.64923 4.663 4.684C4.651 4.696 4.633 4.708 4.62 4.72C4.58679 4.75929 4.5514 4.79668 4.514 4.832C4.508 4.844 4.496 4.851 4.49 4.862C4.44 4.912 4.397 4.962 4.347 5.012L4.329 5.03C4.229 5.136 4.124 5.241 4.012 5.334C3.901 5.434 3.783 5.526 3.665 5.607C3.42808 5.77623 3.17238 5.9175 2.903 6.028C2.773 6.084 2.636 6.134 2.5 6.177C2.24 6.233 1.973 6.338 1.744 6.357C1.694 6.357 1.639 6.369 1.589 6.375L1.434 6.412L1.285 6.468C1.235 6.487 1.186 6.512 1.137 6.536C1.093 6.567 1.044 6.592 1 6.623C0.95588 6.65493 0.914411 6.69038 0.876001 6.729C0.833001 6.759 0.789001 6.803 0.752001 6.84C0.715001 6.883 0.678001 6.92 0.647001 6.964C0.616001 7.014 0.579001 7.057 0.554001 7.107C0.521429 7.15205 0.492344 7.19952 0.467001 7.249C0.442001 7.305 0.417001 7.355 0.399001 7.41C0.380001 7.46 0.362001 7.516 0.343001 7.571C0.331001 7.621 0.318001 7.671 0.313001 7.721C0.313001 7.726 0.306001 7.733 0.306001 7.739C0.294001 7.795 0.294001 7.869 0.287001 7.906C0.281001 7.95 0.275001 7.986 0.275001 8.03C0.27385 8.13784 0.299265 8.2443 0.349001 8.34V8.346C0.368001 8.383 0.393001 8.421 0.418001 8.458C0.442001 8.495 0.468001 8.532 0.498001 8.569C0.529001 8.6 0.566001 8.638 0.604001 8.669C0.640135 8.70524 0.679275 8.73836 0.721001 8.768C0.870001 8.898 0.907001 8.941 1.099 9.04C1.13 9.059 1.161 9.071 1.199 9.09C1.205 9.09 1.211 9.096 1.217 9.096C1.217 9.109 1.217 9.115 1.223 9.127C1.23748 9.22921 1.26434 9.32928 1.303 9.425C1.323 9.462 1.335 9.499 1.353 9.536C1.36 9.549 1.366 9.561 1.373 9.567C1.397 9.617 1.422 9.66 1.446 9.704L1.539 9.834C1.57 9.871 1.608 9.914 1.645 9.952C1.682 9.989 1.719 10.02 1.763 10.057C1.763 10.057 1.769 10.063 1.775 10.063C1.812 10.094 1.849 10.125 1.887 10.15C1.93012 10.1803 1.9756 10.207 2.023 10.23C2.066 10.255 2.116 10.28 2.165 10.299C2.20496 10.317 2.24646 10.3314 2.289 10.342C2.296 10.348 2.302 10.348 2.314 10.354C2.339 10.361 2.37 10.367 2.394 10.373C2.376 10.708 2.37 11.023 2.42 11.135C2.475 11.259 2.748 10.881 3.02 10.447C2.984 10.875 2.959 11.377 3.02 11.526C3.089 11.681 3.46 11.197 3.783 10.664C8.178 9.648 12.188 12.684 12.609 16.974C12.529 16.304 11.704 15.933 11.326 16.026C11.14 16.484 10.824 17.073 10.316 17.439C10.359 17.029 10.341 16.609 10.254 16.199C10.1152 16.7697 9.85266 17.3029 9.485 17.761C8.897 17.804 8.308 17.519 7.998 17.091C7.973 17.073 7.967 17.036 7.948 17.011C7.93 16.968 7.911 16.924 7.898 16.881C7.88001 16.8395 7.86757 16.7958 7.861 16.751C7.855 16.707 7.855 16.664 7.855 16.614V16.521C7.8624 16.477 7.87276 16.4336 7.886 16.391C7.899 16.348 7.911 16.305 7.93 16.261C7.954 16.218 7.973 16.174 8.004 16.131C8.109 15.833 8.109 15.591 7.917 15.449C7.87971 15.4247 7.8402 15.4039 7.799 15.387C7.775 15.381 7.744 15.369 7.719 15.362L7.669 15.344C7.62655 15.3303 7.58308 15.3199 7.539 15.313C7.49676 15.3006 7.45301 15.2942 7.409 15.294C7.36399 15.2869 7.31855 15.2829 7.273 15.282C7.242 15.282 7.211 15.288 7.18 15.288C7.13366 15.2877 7.08752 15.2941 7.043 15.307C7 15.313 6.957 15.319 6.913 15.331C6.86877 15.3429 6.82535 15.3576 6.783 15.375C6.74 15.393 6.703 15.412 6.659 15.431C6.622 15.449 6.585 15.474 6.541 15.493C5.097 16.435 5.959 18.641 6.944 19.28C6.572 19.348 6.194 19.428 6.089 19.509L6.076 19.521C6.343 19.682 6.622 19.819 6.913 19.937C7.31 20.067 7.731 20.184 7.917 20.234V20.24C8.43053 20.3455 8.95568 20.3831 9.479 20.352C12.225 20.16 14.475 18.071 14.884 15.319L14.921 15.48C14.94 15.592 14.964 15.71 14.977 15.827V15.833C14.989 15.889 14.995 15.945 15.002 15.995V16.019C15.008 16.075 15.014 16.131 15.014 16.181C15.02 16.249 15.026 16.317 15.026 16.385V16.485C15.026 16.515 15.033 16.552 15.033 16.583C15.033 16.621 15.026 16.658 15.026 16.695V16.782C15.026 16.825 15.02 16.862 15.02 16.906C15.02 16.931 15.02 16.956 15.014 16.986C15.014 17.03 15.008 17.073 15.008 17.123C15.002 17.141 15.002 17.16 15.002 17.178L14.982 17.321C14.982 17.34 14.982 17.358 14.977 17.377C14.97 17.439 14.958 17.495 14.952 17.557V17.569L14.915 17.743V17.761L14.878 17.928C14.878 17.935 14.871 17.948 14.871 17.953C14.8596 18.0097 14.8452 18.0658 14.828 18.121V18.139C14.809 18.201 14.791 18.257 14.778 18.313C14.772 18.319 14.772 18.325 14.772 18.325L14.716 18.511C14.692 18.573 14.673 18.629 14.648 18.691C14.623 18.753 14.605 18.815 14.58 18.871C14.555 18.933 14.53 18.988 14.506 19.051H14.499C14.475 19.106 14.449 19.168 14.419 19.224C14.4138 19.2388 14.4074 19.2532 14.4 19.267C14.394 19.273 14.394 19.28 14.388 19.286C13.9781 20.1066 13.3814 20.8197 12.646 21.368C12.596 21.399 12.547 21.437 12.497 21.474C12.485 21.486 12.467 21.492 12.454 21.504C12.4097 21.5368 12.3643 21.5681 12.318 21.598L12.336 21.635H12.343L12.603 21.598H12.609C12.77 21.573 12.931 21.542 13.092 21.511C13.136 21.505 13.185 21.492 13.229 21.48L13.316 21.461C13.359 21.455 13.402 21.443 13.446 21.437C13.483 21.424 13.52 21.417 13.557 21.406C14.177 21.256 14.778 21.052 15.355 20.811C14.3588 22.1678 13.034 23.249 11.505 23.953C12.219 23.903 12.931 23.786 13.619 23.587C16.1092 22.8548 18.2124 21.1743 19.476 18.907C19.2208 20.3423 18.6516 21.7034 17.809 22.893C18.4097 22.4968 18.9648 22.0353 19.464 21.517C20.8514 20.0686 21.7622 18.2303 22.074 16.249C22.284 17.229 22.346 18.239 22.254 19.236C26.728 12.995 22.625 6.524 20.908 4.82C20.902 4.807 20.896 4.801 20.896 4.789C20.89 4.795 20.89 4.795 20.89 4.801C20.89 4.795 20.89 4.795 20.883 4.789C20.883 4.863 20.877 4.937 20.871 5.012C20.8538 5.15083 20.8331 5.28921 20.809 5.427C20.779 5.563 20.741 5.7 20.704 5.837C20.66 5.967 20.611 6.103 20.554 6.233C20.4973 6.36139 20.4356 6.48749 20.369 6.611C20.2306 6.85396 20.071 7.0842 19.892 7.299C19.799 7.41 19.7 7.509 19.6 7.609C19.5416 7.66244 19.4815 7.71413 19.42 7.764L19.278 7.888C19.1674 7.97533 19.0515 8.05581 18.931 8.129C18.8125 8.20529 18.6904 8.27571 18.565 8.34C18.435 8.402 18.305 8.458 18.175 8.514C17.9102 8.6147 17.6363 8.68939 17.357 8.737C17.214 8.762 17.072 8.774 16.935 8.787C16.8361 8.79399 16.7371 8.79799 16.638 8.799C16.497 8.79705 16.3562 8.78871 16.216 8.774C16.0744 8.76288 15.9338 8.74217 15.795 8.712C15.6544 8.68649 15.5158 8.65141 15.38 8.607H15.373C15.51 8.594 15.646 8.582 15.783 8.557C16.0621 8.50861 16.336 8.43395 16.601 8.334C16.737 8.284 16.867 8.222 16.991 8.16C17.121 8.098 17.239 8.03 17.363 7.956C17.481 7.876 17.598 7.795 17.71 7.708C17.822 7.621 17.927 7.528 18.026 7.429C18.131 7.336 18.224 7.231 18.317 7.125C18.41 7.014 18.497 6.902 18.577 6.791C18.59 6.772 18.603 6.747 18.615 6.729C18.677 6.629 18.739 6.53 18.795 6.431C18.9316 6.18432 19.0435 5.92472 19.129 5.656C19.173 5.526 19.204 5.39 19.235 5.253C19.26 5.111 19.285 4.975 19.297 4.838C19.309 4.696 19.322 4.553 19.322 4.417C19.322 4.317 19.315 4.218 19.309 4.119C19.2966 3.98018 19.28 3.84178 19.259 3.704C19.2349 3.56429 19.2042 3.4258 19.167 3.289C19.123 3.159 19.08 3.022 19.03 2.892C18.98 2.762 18.919 2.632 18.857 2.508C18.788 2.384 18.72 2.26 18.646 2.142C18.5668 2.02615 18.4841 1.91276 18.398 1.802C18.305 1.696 18.212 1.59 18.113 1.485C18.0608 1.43179 18.0071 1.38011 17.952 1.33C17.672 1.113 17.382 0.908997 17.09 0.722997C17.0499 0.699864 17.0085 0.67916 16.966 0.660997C16.7822 0.548431 16.5841 0.459987 16.377 0.399997Z" fill="white"/>
</svg>
