<svg width="25" height="19" viewBox="0 0 25 19" fill="none" xmlns="http://www.w3.org/2000/svg">
<path d="M6.91074 0C6.84744 0 6.77886 -8.05744e-08 6.71555 0.00527529C4.9272 0.0474783 2.73264 0.569741 0 1.78308V14.6233C3.20743 13.104 5.62882 12.6662 7.60709 12.8772C8.32982 12.951 8.99451 13.1146 9.60646 13.3309L7.22726 9.17388C6.77358 9.35851 6.28297 9.46402 5.76598 9.46402C3.64476 9.46402 1.91496 7.7337 1.91496 5.613C1.91496 3.4923 3.64476 1.76198 5.76598 1.76198C7.88669 1.76198 9.61701 3.4923 9.61701 5.613C9.61701 6.87909 8.99979 8.00274 8.05022 8.70964L11.073 13.985C11.4001 14.1538 11.7113 14.3385 12.0173 14.5231V1.70395C10.7934 0.770205 9.36907 0.121334 7.48048 0.0158263C7.29584 0.00527554 7.10593 0 6.91074 0ZM18.0945 0C17.8993 0 17.7042 0.00527554 17.5195 0.0158263C15.6309 0.121334 14.2119 0.770205 12.9827 1.70395V14.5231C14.2435 13.7529 15.6257 13.0618 17.3929 12.8772C19.3712 12.6662 21.7978 13.104 25 14.6233V1.78308C22.2726 0.569741 20.0781 0.0474783 18.2897 0.00527529C18.2211 0.00527529 18.1578 0 18.0945 0ZM5.76598 2.71154C4.15805 2.71154 2.86453 4.00401 2.86453 5.613C2.86453 7.22199 4.15805 8.51445 5.76598 8.51445C7.37497 8.51445 8.66744 7.22199 8.66744 5.613C8.66744 4.00401 7.37497 2.71154 5.76598 2.71154ZM5.88732 3.44482H6.03503C4.76366 4.40494 4.20025 5.66575 4.27464 7.14813C2.89987 5.10129 4.34163 3.48702 5.88732 3.44482ZM6.57839 13.8109C4.89027 13.8268 2.79067 14.3279 0 15.7101V17.9521C3.20743 16.4328 5.62882 15.9949 7.60709 16.206C8.58831 16.3115 9.4482 16.57 10.2342 16.9076C9.98628 17.2294 9.74362 17.6092 9.50095 18.0523H12.3127L10.4136 14.7447C9.53788 14.3068 8.60414 13.9745 7.50686 13.8584C7.21144 13.8268 6.90019 13.8109 6.57839 13.8109ZM18.2317 13.8109C17.9785 13.8162 17.7358 13.832 17.4984 13.8584C15.7048 14.0483 14.3543 14.808 12.9827 15.6731V15.689C12.6609 15.5887 12.3338 15.5676 12.0173 15.6257L13.4047 18.0523H15.6837C15.3672 17.6198 15.0612 17.2399 14.7499 16.9129C15.5413 16.57 16.4064 16.3115 17.3929 16.206C19.3712 15.9949 21.7978 16.4328 25 17.9521V15.7101C22.1988 14.3226 20.0886 13.8162 18.3952 13.8109H18.2317Z" fill="white"/>
</svg>
